HIERARCHY
ROOT hip
{
  OFFSET 0.0 0.0 0.0
  CHANNELS 6 Xposition Yposition Zposition Zrotation Yrotation Xrotation
  JOINT torso
  {
    OFFSET 0.0 0.0 0.0
    CHANNELS 3 Zrotation Xrotation Yrotation
    JOINT neck
    {
      OFFSET -20.11218299999996 327.95800799999995 66.30578600000035
      CHANNELS 3 Zrotation Xrotation Yrotation
      JOINT head
      {
        OFFSET 18.28939800000012 288.83178699999996 217.81652800000006
        CHANNELS 3 Zrotation Xrotation Yrotation
        End Site
        {
          OFFSET 0.0 0.0 0.0
        }
      }
    }
    JOINT left_collar
    {
      OFFSET -20.11218299999996 327.95800799999995 66.30578600000035
      CHANNELS 3 Zrotation Xrotation Yrotation
      JOINT left_upper_arm
      {
        OFFSET -127.08163400000001 -16.17407199999991 15.44799799999987
        CHANNELS 3 Zrotation Xrotation Yrotation
        JOINT left_forearm
        {
          OFFSET -234.267792 45.78796399999999 109.31286600000021
          CHANNELS 3 Zrotation Xrotation Yrotation
          JOINT left_hand
          {
            OFFSET -259.114014 -33.25433399999997 16.18847699999992
            CHANNELS 3 Zrotation Xrotation Yrotation
            End Site
            {
              OFFSET 0.0 0.0 0.0
            }
          }
        }
      }
    }
    JOINT right_collar
    {
      OFFSET -20.11218299999996 327.95800799999995 66.30578600000035
      CHANNELS 3 Zrotation Xrotation Yrotation
      JOINT right_upper_arm
      {
        OFFSET 164.513184 1.5733030000000099 4.892333999999892
        CHANNELS 3 Zrotation Xrotation Yrotation
        JOINT right_forearm
        {
          OFFSET 260.742027 48.718444999999974 144.35229500000014
          CHANNELS 3 Zrotation Xrotation Yrotation
          JOINT right_hand
          {
            OFFSET 287.85150899999996 -44.57171600000015 13.96813899999961
            CHANNELS 3 Zrotation Xrotation Yrotation
            End Site
            {
              OFFSET 0.0 0.0 0.0
            }
          }
        }
      }
    }
  }
}
MOTION
Frames: 19
Frame Time: 0.01
-238.37202014991328 240.12413466977168 1683.8037196247549 1.7857573062489889 -5.244503093444072 -9.015268496845625 1.2857352512650824 -2.476419556988976 -0.4380255817021843 -2.900489987944684 -7.407641821498899 2.7165397026051545 0.0 0.0 0.0 4.0497253529413975 0.2962933549357988 1.2122062493461938 41.612260461726144 25.27279000931029 -24.786165962472555 -5.080573888168848 2.6724213643042747 -34.13659009894125 0.0 0.0 0.0 -0.7678248037171035 0.01640215441388992 2.2494631814791486 -37.8019803630495 33.964111291311475 45.27270938834013 -4.94171803399516 6.130522058687179 28.582739055000097 0.0 0.0 0.0
-238.3343302992619 239.94739991709602 1679.7202493324287 1.9794539912649354 -5.492269195485852 -8.934215123666217 1.1618196621131878 -2.2723740051077 -0.39597454521843084 -2.8769121447057673 -7.354234705503006 2.6944496750733182 0.0 0.0 0.0 3.983249391388236 0.32034952591942223 1.018925438674757 41.62834913331953 25.27507588385744 -24.7548479938861 -5.0522723680907 2.6822736187888 -34.12764456715465 0.0 0.0 0.0 -0.8202519884777029 0.019456075964772956 2.056248714557103 -37.79943212238249 33.9819821817743 45.32223092312625 -4.902873339783433 6.108110614737109 28.536194141295894 0.0 0.0 0.0
-238.3260744964637 239.77401686339198 1675.5562956681692 2.1820751359651553 -5.741702558904764 -8.852880557433625 1.0322106355729046 -2.059186714829575 -0.3524538621895547 -2.8516111712293073 -7.303690800547854 2.6712112528431975 0.0 0.0 0.0 3.9142427752434408 0.3456683138823886 0.8147198841843826 41.64775556729107 25.277894772186716 -24.717318384190385 -5.020295990196105 2.693290816858301 -34.116395972073455 0.0 0.0 0.0 -0.8771119721593843 0.022557093096624337 1.852327638398077 -37.80139378967429 34.00242533103508 45.365777923383526 -4.871092922576472 6.0876474261811335 28.48814386196626 0.0 0.0 0.0
-238.34805597452262 239.60710963096054 1671.3099988610354 2.390687371484292 -5.988477807848579 -8.774140691554157 0.8993551775889703 -1.8401794599106067 -0.30828342997486835 -2.825163803221927 -7.257216111638796 2.647358160221745 0.0 0.0 0.0 3.8436029868537993 0.3717534828844324 0.6031084022531471 41.670963417636656 25.281414714836405 -24.672994194882765 -4.984805128878263 2.705409211433999 -34.10284508475906 0.0 0.0 0.0 -0.9376627319908728 0.0256278101495494 1.6413842709129216 -37.80840002642643 34.02563585820025 45.40237716615938 -4.847129311165737 6.069331667171526 28.43845222513199 0.0 0.0 0.0
-238.40117183447305 239.44985520746027 1666.9801327023188 2.602185063996037 -6.2282176768860085 -8.700860417871173 0.7657978368158816 -1.618826245480569 -0.264283640309872 -2.798129658123589 -7.215959469726971 2.623406042477115 0.0 0.0 0.0 3.772302377214271 0.39810119910069824 0.38779926064726933 41.6984806280068 25.285821892207515 -24.621303580360546 -4.945982211358787 2.718564669023423 -34.087079412229336 0.0 0.0 0.0 -1.001052296803186 0.028597621418501442 1.42725945571352 -37.820976565071724 34.05179478902922 45.43105270796561 -4.831705893402612 6.053355825716397 28.387003671487868 0.0 0.0 0.0
-238.48639552245848 239.30541718247682 1662.5661978672936 2.813371135763768 -6.456628974130878 -8.635799979226002 0.6341030708575464 -1.398649088107462 -0.22124870529892707 -2.7710284148858277 -7.180973069256239 2.599831981171195 0.0 0.0 0.0 3.701366481665602 0.42421631213415645 0.17258502384915828 41.730826105563004 25.291316242753208 -24.56170529956271 -4.9040390572829615 2.7326904048919984 -34.06927606415121 0.0 0.0 0.0 -1.0663407623632488 0.031406498041172536 1.2138407824102107 -37.83961670023191 34.0810573529575 45.45086356123895 -4.825489576764315 6.03989806222115 28.333708028760547 0.0 0.0 0.0
-238.60475504474238 239.17687758341629 1658.0685065525076 3.0210406485979746 -6.669642020205582 -8.581525554213917 0.5067787170347694 -1.1831073990250989 -0.17992277129821618 -2.744317561281494 -7.153175711362833 2.5770547059049522 0.0 0.0 0.0 3.6318489447185147 0.44962778425549765 -0.0387673749215423 41.76851564691611 25.298106404643775 -24.49370773227698 -4.859223331195184 2.7477148571920056 -34.04970199608474 0.0 0.0 0.0 -1.1325264606706 0.03400779125676787 1.0049503362593548 -37.864758049306374 34.1135413851555 45.46094084494319 -4.8290632639810775 6.029114454508695 28.278504713633573 0.0 0.0 0.0
-238.7573079672614 239.06716899414332 1653.4882535479298 3.222062608352058 -6.863544888352979 -8.540329563026434 0.3862050784910182 -0.9754881141370405 -0.14098024017453994 -2.71837256397046 -7.13332059534583 2.5554170608426667 0.0 0.0 0.0 3.564804436809803 0.473902239288846 -0.24262458621510224 41.81204747734343 25.3064041788728 -24.4168870374405 -4.8118235958436975 2.763559870792128 -34.02871153664149 0.0 0.0 0.0 -1.1985747400020617 0.036369802415846995 0.8042366837042779 -37.896760482068956 34.149316366649565 45.4605229447555 -4.842899527950106 6.021131584774928 28.2213661830772 0.0 0.0 0.0
-238.94511437920582 238.97900900919424 1648.8275694894778 3.4134563047803046 -7.035104395384649 -8.514164977057117 0.2745729919117312 -0.7788034235967068 -0.10501109569555657 -2.6934711428872893 -7.121969127801661 2.535172116358913 0.0 0.0 0.0 3.5012609536692554 0.49665487072352993 -0.4355868184022512 41.86188775862179 25.316418724215215 -24.330904122397598 -4.762172506564692 2.780139344011779 -34.0067411931083 0.0 0.0 0.0 -1.263447825042681 0.03847602753959799 0.6150769139729466 -37.935885985527264 34.18839360649676 45.448987485524924 -4.86733674268161 6.016039878330753 28.162300647261464 0.0 0.0 0.0
-239.1692089836303 238.9148388647581 1644.0895530435243 3.5924597270437255 -7.181667351499039 -8.50459630441553 0.1738327689342932 -0.5957018256805823 -0.07251136155769948 -2.6697829453447053 -7.119471737316985 2.5164739793736866 0.0 0.0 0.0 3.442192745894204 0.5175572929194451 -0.6145752238895476 41.91845640363939 25.328350694148952 -24.235520118555247 -4.710647777273646 2.797358459787959 -33.984301813062594 0.0 0.0 0.0 -1.326134393554548 0.04032414374413199 0.4404930608854014 -37.98228108010727 34.23071802438763 45.42587922838561 -4.9025587108933255 6.013888028185757 28.101354060543095 0.0 0.0 0.0
-239.43057329591267 238.87676784389228 1639.2782799219867 3.75658875898754 -7.301237498546549 -8.51276829989036 0.08565454557274435 -0.4283967333311088 -0.04387826092785424 -2.6473654356792853 -7.12595620379178 2.499373951429774 0.0 0.0 0.0 3.3884949082985276 0.536342255510617 -0.7769036667658654 41.982113510853246 25.342386513743545 -24.13061007808745 -4.657670667136181 2.815113580506194 -33.961968247838136 0.0 0.0 0.0 -1.3856777322040306 0.041923940476018044 0.2830855851361698 -38.035962286711055 34.27616195028248 45.39093327237721 -4.9485785866646586 6.014678751777068 28.03861139602887 0.0 0.0 0.0
-239.73010860236312 238.86652480952924 1634.3987877644258 3.9036867215281252 -7.392525480043645 -8.539392032379228 0.01139958406373982 -0.2786153158209654 -0.019409287553339916 -2.626166323417441 -7.141323595205355 2.483822277145517 0.0 0.0 0.0 3.34096041382272 0.5528054188893704 -0.920333323429477 42.05314670006946 25.358692972454943 -24.016174623076935 -4.603701874354637 2.8332928361992025 -33.94036670755534 0.0 0.0 0.0 -1.4412015652886079 0.04329449464055823 0.14498507834310378 -38.0968050744045 34.32452131986871 45.34409312931564 -5.0052276528052335 6.018366037327113 27.974197188432875 0.0 0.0 0.0
-240.06860992797374 238.88541799250808 1629.4570369936423 4.031964357969692 -7.454970955136184 -8.584746824403027 -0.04789850873127395 -0.14756878971502838 0.00069576109602423 -2.6060323817380997 -7.165251566852525 2.4696753440030585 0.0 0.0 0.0 3.300260134707153 0.56680458930532 -1.0431098372318468 42.131759591704096 25.377412279540398 -23.892349305811408 -4.5492348735840356 2.85177738205981 -33.92016001797205 0.0 0.0 0.0 -1.4919328674169228 0.04446093915611949 0.02782206258900172 -38.16453667541079 34.375514595090756 45.28552336230959 -5.072149282061046 6.024853951276741 27.908275308408697 0.0 0.0 0.0
-240.44674088975336 238.9343039592893 1624.4598487319142 4.140030618576055 -7.488737552299566 -8.648695800801116 -0.0915439230294067 -0.035944027658411634 0.01633073496025042 -2.5867240762470507 -7.197204513797704 2.4567078489716607 0.0 0.0 0.0 3.266926182153225 0.5782569327561716 -1.1439837488626465 42.21806162440729 25.398657696522246 -23.759411490219772 -4.494786893914691 2.870443245983268 -33.90203100224443 0.0 0.0 0.0 -1.5372211640357778 0.04545118007722952 -0.06728624783451148 -38.23873310977711 34.42878466291927 45.21561656351561 -5.148798188286577 6.0339969962575655 27.841047914014467 0.0 0.0 0.0
-240.865009070209 239.0135664967054 1619.4148217383472 4.226914681328798 -7.494682718017884 -8.730712361081707 -0.11918142695821524 0.05608482683933054 0.027477895857642667 -2.5679350509587286 -7.23644986515077 2.4446291504161666 0.0 0.0 0.0 3.241338740934027 0.5871347337693382 -1.2222156298221558 42.31205935096909 25.422509827435825 -23.61778464186841 -4.440887901482353 2.8891636336761675 -33.88666423711581 0.0 0.0 0.0 -1.5765539826247525 0.04629288428927875 -0.13973405498280864 -38.31882069635343 34.48390385663162 45.134994522077236 -5.234444863045972 6.0456019343858 27.77275351714267 0.0 0.0 0.0
-241.32374149600926 239.12310595709002 1614.3302310682986 4.292079622380101 -7.474305597503143 -8.829914792502901 -0.13079292402396075 0.12882700948967854 0.03420213971182897 -2.5493152240382697 -7.282079657381157 2.4331027884799963 0.0 0.0 0.0 3.2237164935637 0.5934602517737323 -1.2775677672903567 42.413649287813534 25.449013610135736 -23.468040010048927 -4.388068114697267 2.9078115127316027 -33.87472648871458 0.0 0.0 0.0 -1.6095682380383118 0.04701099736853359 -0.18941218639354604 -38.40408222780906 34.540382103451535 45.044503517356596 -5.328184906209411 6.059430929353412 27.703664113602862 0.0 0.0 0.0
-241.82305995779527 239.26233937791315 1609.214911730858 4.335428078257264 -7.429676850035184 -8.945106402289994 -0.12668871494612777 0.1830310190514607 0.03664510926974435 -2.530496044340366 -7.333036417857326 2.4217679934086087 0.0 0.0 0.0 3.2141107150642014 0.5973001703137405 -1.3102844277473775 42.52261232291989 25.478176010640336 -23.310895785731258 -4.336844723390098 2.926262264064737 -33.86684622042395 0.0 0.0 0.0 -1.636057423260051 0.047625970456335535 -0.21668277179619308 -38.493667846535104 34.597678035412365 44.945203782816876 -5.428952809888484 6.07520581802897 27.63408135646545 0.0 0.0 0.0
-242.36285621376427 239.4302114050396 1604.0781309990218 4.357300158201573 -7.363354752863506 -9.074818881466111 -0.10749416677637219 0.21982913863415457 0.035019423741790234 -2.5111163548746287 -7.388142327243867 2.410261911889193 0.0 0.0 0.0 3.212403143151877 0.5987600483057642 -1.3210627300646582 42.638609631111 25.509964386456197 -23.147213900523088 -4.2877085872470415 2.944396174048551 -33.86359267398949 0.0 0.0 0.0 -1.6559745448597263 0.04815278657783094 -0.2223456943249574 -38.586610464976545 34.65521271331672 44.83835334695244 -5.535539649613199 6.0926132981938625 27.564331793170727 0.0 0.0 0.0
-242.9427675029247 239.6252157152076 1598.9294531928304 4.358463785159121 -7.278292106671676 -9.217357032553904 -0.07413227823746474 0.24067418676529168 0.029603072238360693 -2.490847301199992 -7.446130612733398 2.398241267475026 0.0 0.0 0.0 3.2183077401261313 0.5979790799979213 -1.3110160579706627 42.76118003701797 25.544305468193414 -22.977994661716593 -4.241111734915185 2.9621005474530406 -33.86545513839505 0.0 0.0 0.0 -1.6694308075110234 0.048600790088402984 -0.2075989341288156 -38.68184532800889 34.71238541965281 44.72538668377778 -5.64661407368604 6.111310810032283 27.494761222321245 0.0 0.0 0.0
